<svg aria-hidden="true" style="position:absolute;width:0;height:0" xmlns="http://www.w3.org/2000/svg" overflow="hidden"><defs><symbol id="settings" viewBox="0 0 20 20"><path d="M10 12a2 2 0 110-4 2 2 0 110 4zm0-6a2 2 0 110-4 2 2 0 110 4zm0 12a2 2 0 110-4 2 2 0 110 4z"/></symbol><symbol id="arrow-right" viewBox="0 0 24 24"><path d="M8.578 16.594L13.172 12 8.578 7.406 9.984 6l6 6-6 6z"/></symbol><symbol id="arrow-left" viewBox="0 0 24 24"><path d="M15.422 16.594L14.016 18l-6-6 6-6 1.406 1.406L10.828 12z"/></symbol></defs></svg>